<svg data-v-423bf9ae="" xmlns="http://www.w3.org/2000/svg" viewBox="0 0 361.1645836728535 185" class="iconAboveSlogan"><!----><!----><!----><g data-v-423bf9ae="" id="fc986d6b-6cd4-4b8b-ab3d-6fd985aecff7" fill="white" transform="matrix(5.063291383733213,0,0,5.063291383733213,-4.860760154871485,98.49366799909475)"><path d="M7.67 7.26C8.40 6.86 8.86 6.16 8.86 5.06C8.86 3.15 7.42 2.10 5.62 2.10L0.96 2.10L0.96 12.60L6.02 12.60C7.81 12.60 9.21 11.62 9.21 9.70C9.21 8.44 8.59 7.67 7.67 7.26ZM6.18 5.36C6.18 5.83 5.78 6.28 5.29 6.28L3.64 6.28L3.64 4.43L5.29 4.43C5.78 4.43 6.18 4.87 6.18 5.36ZM5.62 10.27L3.64 10.27L3.64 8.42L5.62 8.42C6.14 8.42 6.53 8.87 6.53 9.35C6.53 9.84 6.14 10.27 5.62 10.27ZM13.93 12.74C16.24 12.74 17.45 11.62 17.45 9.85L17.45 5.60L14.86 5.60L14.86 9.52C14.86 10.06 14.46 10.48 13.93 10.48C13.42 10.48 13.04 10.06 13.04 9.52L13.04 5.60L10.43 5.60L10.43 9.85C10.43 11.62 11.64 12.74 13.93 12.74ZM20.55 4.46C21.30 4.46 21.93 3.83 21.93 3.08C21.93 2.33 21.30 1.71 20.55 1.71C19.79 1.71 19.16 2.33 19.16 3.08C19.16 3.83 19.79 4.46 20.55 4.46ZM19.25 12.60L21.84 12.60L21.84 5.60L19.25 5.60ZM23.78 12.60L26.37 12.60L26.37 0.89L23.78 0.89ZM33.02 0.91L33.02 6.11C32.55 5.71 31.94 5.46 31.20 5.46C29.30 5.46 27.81 7.05 27.81 9.10C27.81 11.15 29.30 12.74 31.20 12.74C31.94 12.74 32.55 12.50 33.02 12.09L33.02 12.62L35.61 12.60L35.61 0.89ZM31.80 10.48C31.01 10.48 30.40 9.89 30.40 9.10C30.40 8.31 31.01 7.72 31.80 7.72C32.55 7.72 33.18 8.31 33.18 9.10C33.18 9.89 32.55 10.48 31.80 10.48ZM44.00 12.60L46.87 12.60L43.07 2.10L40.08 2.10L36.28 12.60L39.16 12.60L39.74 10.76L43.42 10.76ZM40.43 8.59L41.58 4.88L42.75 8.59ZM52.06 7.53L52.06 5.60L50.45 5.60L50.45 3.03L47.86 3.03L47.86 5.60L46.69 5.60L46.69 7.53L47.86 7.53L47.86 9.91C47.86 11.50 49.23 12.74 50.84 12.74C51.35 12.74 51.85 12.64 52.03 12.51L52.03 10.50L51.17 10.50C50.73 10.50 50.45 10.15 50.45 9.59L50.45 7.53ZM53.29 12.60L55.88 12.60L55.88 0.89L53.29 0.89ZM65.71 10.50C65.43 10.50 65.12 10.45 65.12 9.89L65.12 5.60L62.53 5.60L62.53 6.11C62.06 5.71 61.44 5.46 60.71 5.46C58.80 5.46 57.31 7.05 57.31 9.10C57.31 11.15 58.80 12.74 60.71 12.74C61.72 12.74 62.51 12.29 63.02 11.53C63.53 12.27 64.37 12.74 65.36 12.74C65.59 12.74 65.80 12.67 65.96 12.60L65.96 10.50ZM61.30 10.48C60.52 10.48 59.90 9.89 59.90 9.10C59.90 8.31 60.52 7.72 61.30 7.72C62.06 7.72 62.69 8.31 62.69 9.10C62.69 9.22 62.67 9.35 62.63 9.45L62.56 9.66C62.35 10.15 61.86 10.48 61.30 10.48ZM69.63 12.74C71.33 12.74 72.29 11.73 72.29 10.40C72.29 8.94 71.07 8.37 70.05 7.96C69.67 7.81 69.48 7.74 69.48 7.58C69.48 7.46 69.58 7.32 69.91 7.32C70.37 7.32 70.79 7.58 71.03 7.81L72.17 6.32C71.56 5.81 70.72 5.46 69.72 5.46C67.94 5.46 66.94 6.62 66.94 7.79C66.94 9.28 68.57 9.71 69.20 9.96C69.77 10.17 69.91 10.33 69.91 10.48C69.91 10.66 69.74 10.76 69.44 10.76C69.18 10.76 68.72 10.69 68.34 10.08L66.52 11.03C66.97 12.18 68.36 12.74 69.63 12.74Z"></path></g><!----><g data-v-423bf9ae="" id="5e622e11-5954-4222-98d2-d48fd14b372b" transform="matrix(1.5220341476065322,0,0,1.5220341476065322,104.89736233139114,-30.66740409663521)" stroke="none" fill="white"><g clip-rule="evenodd"><circle cx="49.105" cy="49.295" r="7.144"></circle><circle cx="63.899" cy="49.295" r="7.144"></circle><circle cx="34.212" cy="49.295" r="7.144"></circle><circle cx="49.105" cy="64.189" r="7.144"></circle><circle cx="49.105" cy="34.517" r="7.144"></circle><circle cx="63.999" cy="34.517" r="7.144"></circle><circle cx="78.777" cy="34.517" r="7.144"></circle><circle cx="78.777" cy="64.189" r="7.144"></circle><circle cx="19.899" cy="34.517" r="7.144"></circle><circle cx="19.899" cy="64.189" r="7.144"></circle><path d="M50.122 76.854C11.611 83.604.315 68.251 18.603 40.578-6.231 70.598 2.172 86.232 50.122 76.854zM49.878 23.146c38.512-6.75 49.807 8.603 31.519 36.276 24.834-30.02 16.431-45.654-31.519-36.276z"></path></g></g><!----><g data-v-423bf9ae="" id="94f0eac5-5360-40e7-86a6-0e025e7e464f" fill="white" transform="matrix(0.9509336878033864,0,0,0.9509336878033864,45.59468356470845,200.9044079016316)"><path d="M0.64 15.68L0.64 5.88L2.88 5.88L4.20 15.18L4.37 15.18L5.68 5.88L7.92 5.88L7.92 15.68L6.83 15.68L6.83 6.38L6.66 6.38L5.35 15.68L3.22 15.68L1.90 6.38L1.74 6.38L1.74 15.68L0.64 15.68ZM22.67 15.68L21.95 13.24L17.75 13.24L17.04 15.68L15.78 15.68L18.75 5.88L20.96 5.88L23.93 15.68L22.67 15.68ZM19.94 6.38L19.77 6.38L18.07 12.15L21.63 12.15L19.94 6.38ZM35.83 11.65L33.50 11.65L33.50 15.68L32.33 15.68L32.33 5.88L35.83 5.88Q36.58 5.88 37.14 6.10Q37.70 6.31 38.07 6.68Q38.44 7.04 38.63 7.53Q38.82 8.01 38.82 8.54L38.82 8.54L38.82 8.96Q38.82 9.49 38.63 9.98Q38.44 10.47 38.07 10.84Q37.69 11.21 37.13 11.43Q36.57 11.65 35.83 11.65L35.83 11.65ZM33.50 6.97L33.50 10.56L35.69 10.56Q37.65 10.56 37.65 8.88L37.65 8.88L37.65 8.62Q37.65 7.88 37.16 7.43Q36.68 6.97 35.69 6.97L35.69 6.97L33.50 6.97ZM65.97 15.68L65.97 12.24L65.72 12.24L62.65 5.88L63.97 5.88L66.47 11.23L66.64 11.23L69.15 5.88L70.46 5.88L67.40 12.24L67.14 12.24L67.14 15.68L65.97 15.68ZM78.68 11.87L78.68 9.69Q78.68 7.78 79.59 6.73Q80.50 5.68 82.12 5.68L82.12 5.68Q83.75 5.68 84.66 6.73Q85.57 7.78 85.57 9.69L85.57 9.69L85.57 11.87Q85.57 13.83 84.66 14.85Q83.75 15.88 82.12 15.88L82.12 15.88Q80.50 15.88 79.59 14.85Q78.68 13.83 78.68 11.87L78.68 11.87ZM82.12 14.78L82.12 14.78Q83.26 14.78 83.83 14.01Q84.39 13.23 84.39 11.79L84.39 11.79L84.39 9.77Q84.39 8.43 83.83 7.60Q83.26 6.78 82.12 6.78L82.12 6.78Q80.99 6.78 80.42 7.60Q79.86 8.43 79.86 9.77L79.86 9.77L79.86 11.79Q79.86 13.23 80.42 14.01Q80.99 14.78 82.12 14.78ZM94.33 5.88L95.51 5.88L95.51 12.38Q95.51 13.57 96.06 14.17Q96.61 14.78 97.69 14.78L97.69 14.78Q98.77 14.78 99.32 14.17Q99.88 13.57 99.88 12.38L99.88 12.38L99.88 5.88L101.05 5.88L101.05 12.38Q101.05 14.08 100.16 14.98Q99.26 15.88 97.69 15.88L97.69 15.88Q96.12 15.88 95.23 14.98Q94.33 14.08 94.33 12.38L94.33 12.38L94.33 5.88ZM116.33 12.15L116.33 15.68L115.15 15.68L115.15 12.40Q115.15 12.04 114.98 11.84Q114.81 11.65 114.39 11.65L114.39 11.65L111.34 11.65L111.34 15.68L110.17 15.68L110.17 5.88L113.67 5.88Q114.42 5.88 114.98 6.10Q115.54 6.31 115.91 6.68Q116.28 7.04 116.47 7.53Q116.66 8.01 116.66 8.54L116.66 8.54L116.66 8.96Q116.66 9.51 116.36 10.05Q116.06 10.60 115.43 10.89L115.43 10.89L115.43 11.06Q115.85 11.13 116.09 11.40Q116.33 11.66 116.33 12.15L116.33 12.15ZM111.34 6.97L111.34 10.56L113.53 10.56Q114.52 10.56 115.00 10.13Q115.49 9.70 115.49 8.88L115.49 8.88L115.49 8.62Q115.49 7.88 115.00 7.43Q114.52 6.97 113.53 6.97L113.53 6.97L111.34 6.97ZM144.80 11.65L142.48 11.65L142.48 15.68L141.30 15.68L141.30 5.88L144.80 5.88Q145.56 5.88 146.12 6.10Q146.68 6.31 147.05 6.68Q147.42 7.04 147.61 7.53Q147.80 8.01 147.80 8.54L147.80 8.54L147.80 8.96Q147.80 9.49 147.61 9.98Q147.42 10.47 147.04 10.84Q146.66 11.21 146.10 11.43Q145.54 11.65 144.80 11.65L144.80 11.65ZM142.48 6.97L142.48 10.56L144.66 10.56Q146.62 10.56 146.62 8.88L146.62 8.88L146.62 8.62Q146.62 7.88 146.14 7.43Q145.66 6.97 144.66 6.97L144.66 6.97L142.48 6.97ZM156.86 6.97L156.86 5.88L163.07 5.88L163.07 6.97L160.55 6.97L160.55 14.59L163.07 14.59L163.07 15.68L156.86 15.68L156.86 14.59L159.38 14.59L159.38 6.97L156.86 6.97ZM175.94 11.65L173.61 11.65L173.61 15.68L172.44 15.68L172.44 5.88L175.94 5.88Q176.69 5.88 177.25 6.10Q177.81 6.31 178.19 6.68Q178.56 7.04 178.75 7.53Q178.93 8.01 178.93 8.54L178.93 8.54L178.93 8.96Q178.93 9.49 178.75 9.98Q178.56 10.47 178.18 10.84Q177.80 11.21 177.24 11.43Q176.68 11.65 175.94 11.65L175.94 11.65ZM173.61 6.97L173.61 10.56L175.80 10.56Q177.76 10.56 177.76 8.88L177.76 8.88L177.76 8.62Q177.76 7.88 177.28 7.43Q176.79 6.97 175.80 6.97L175.80 6.97L173.61 6.97ZM188.13 15.68L188.13 5.88L194.07 5.88L194.07 6.97L189.31 6.97L189.31 10.22L193.98 10.22L193.98 11.31L189.31 11.31L189.31 14.59L194.15 14.59L194.15 15.68L188.13 15.68ZM203.60 15.68L203.60 5.88L204.78 5.88L204.78 14.59L209.90 14.59L209.90 15.68L203.60 15.68ZM219.13 6.97L219.13 5.88L225.34 5.88L225.34 6.97L222.82 6.97L222.82 14.59L225.34 14.59L225.34 15.68L219.13 15.68L219.13 14.59L221.65 14.59L221.65 6.97L219.13 6.97ZM236.89 5.88L239.72 15.18L239.89 15.18L239.89 5.88L241.07 5.88L241.07 15.68L238.71 15.68L235.89 6.38L235.72 6.38L235.72 15.68L234.54 15.68L234.54 5.88L236.89 5.88ZM250.40 15.68L250.40 5.88L256.34 5.88L256.34 6.97L251.58 6.97L251.58 10.22L256.26 10.22L256.26 11.31L251.58 11.31L251.58 14.59L256.42 14.59L256.42 15.68L250.40 15.68ZM271.25 9.21L271.25 8.71Q271.25 8.23 271.06 7.87Q270.87 7.50 270.55 7.27Q270.23 7.03 269.81 6.90Q269.39 6.78 268.93 6.78L268.93 6.78Q268.52 6.78 268.16 6.88Q267.79 6.99 267.51 7.18Q267.22 7.38 267.05 7.66Q266.88 7.95 266.88 8.33L266.88 8.33L266.88 8.41Q266.88 8.82 267.05 9.11Q267.22 9.39 267.55 9.60Q267.88 9.80 268.37 9.93Q268.86 10.07 269.51 10.16L269.51 10.16Q271.05 10.40 271.78 11.07Q272.51 11.73 272.51 12.85L272.51 12.85L272.51 13.02Q272.51 13.65 272.29 14.17Q272.08 14.70 271.65 15.08Q271.22 15.46 270.59 15.67Q269.96 15.88 269.14 15.88L269.14 15.88Q268.20 15.88 267.48 15.60Q266.76 15.33 266.27 14.85Q265.79 14.36 265.54 13.71Q265.29 13.06 265.29 12.29L265.29 12.29L265.29 11.87L266.46 11.87L266.46 12.21Q266.46 13.50 267.17 14.14Q267.88 14.78 269.14 14.78L269.14 14.78Q270.23 14.78 270.78 14.30Q271.33 13.82 271.33 13.02L271.33 13.02L271.33 12.94Q271.33 12.17 270.77 11.76Q270.20 11.35 268.93 11.17L268.93 11.17Q268.18 11.07 267.59 10.87Q266.99 10.67 266.57 10.34Q266.15 10.01 265.93 9.55Q265.71 9.09 265.71 8.46L265.71 8.46L265.71 8.29Q265.71 7.71 265.94 7.24Q266.18 6.76 266.61 6.41Q267.04 6.06 267.63 5.87Q268.23 5.68 268.94 5.68L268.94 5.68Q269.77 5.68 270.42 5.92Q271.07 6.16 271.52 6.56Q271.96 6.96 272.20 7.50Q272.43 8.04 272.43 8.62L272.43 8.62L272.43 9.21L271.25 9.21ZM283.53 14.90L283.53 14.90Q283.53 14.49 283.82 14.20Q284.10 13.92 284.51 13.92L284.51 13.92Q284.91 13.92 285.20 14.20Q285.49 14.49 285.49 14.90L285.49 14.90Q285.49 15.30 285.20 15.59Q284.91 15.88 284.51 15.88L284.51 15.88Q284.10 15.88 283.82 15.59Q283.53 15.30 283.53 14.90Z"></path></g></svg>