<svg data-v-423bf9ae="" xmlns="http://www.w3.org/2000/svg" viewBox="0 0 361.1645836728535 60" class="font"><g data-v-423bf9ae="" id="61d45b66-e993-4bd8-b6f8-6003ebed3e7b" fill="#0a0a0a" transform="matrix(5.063291383733213,0,0,5.063291383733213,-4.860760154871485,-4.50633009355662)"><path d="M7.67 7.26C8.40 6.86 8.86 6.16 8.86 5.06C8.86 3.15 7.42 2.10 5.62 2.10L0.96 2.10L0.96 12.60L6.02 12.60C7.81 12.60 9.21 11.62 9.21 9.70C9.21 8.44 8.59 7.67 7.67 7.26ZM6.18 5.36C6.18 5.83 5.78 6.28 5.29 6.28L3.64 6.28L3.64 4.43L5.29 4.43C5.78 4.43 6.18 4.87 6.18 5.36ZM5.62 10.27L3.64 10.27L3.64 8.42L5.62 8.42C6.14 8.42 6.53 8.87 6.53 9.35C6.53 9.84 6.14 10.27 5.62 10.27ZM13.93 12.74C16.24 12.74 17.45 11.62 17.45 9.85L17.45 5.60L14.86 5.60L14.86 9.52C14.86 10.06 14.46 10.48 13.93 10.48C13.42 10.48 13.04 10.06 13.04 9.52L13.04 5.60L10.43 5.60L10.43 9.85C10.43 11.62 11.64 12.74 13.93 12.74ZM20.55 4.46C21.30 4.46 21.93 3.83 21.93 3.08C21.93 2.33 21.30 1.71 20.55 1.71C19.79 1.71 19.16 2.33 19.16 3.08C19.16 3.83 19.79 4.46 20.55 4.46ZM19.25 12.60L21.84 12.60L21.84 5.60L19.25 5.60ZM23.78 12.60L26.37 12.60L26.37 0.89L23.78 0.89ZM33.02 0.91L33.02 6.11C32.55 5.71 31.94 5.46 31.20 5.46C29.30 5.46 27.81 7.05 27.81 9.10C27.81 11.15 29.30 12.74 31.20 12.74C31.94 12.74 32.55 12.50 33.02 12.09L33.02 12.62L35.61 12.60L35.61 0.89ZM31.80 10.48C31.01 10.48 30.40 9.89 30.40 9.10C30.40 8.31 31.01 7.72 31.80 7.72C32.55 7.72 33.18 8.31 33.18 9.10C33.18 9.89 32.55 10.48 31.80 10.48ZM44.00 12.60L46.87 12.60L43.07 2.10L40.08 2.10L36.28 12.60L39.16 12.60L39.74 10.76L43.42 10.76ZM40.43 8.59L41.58 4.88L42.75 8.59ZM52.06 7.53L52.06 5.60L50.45 5.60L50.45 3.03L47.86 3.03L47.86 5.60L46.69 5.60L46.69 7.53L47.86 7.53L47.86 9.91C47.86 11.50 49.23 12.74 50.84 12.74C51.35 12.74 51.85 12.64 52.03 12.51L52.03 10.50L51.17 10.50C50.73 10.50 50.45 10.15 50.45 9.59L50.45 7.53ZM53.29 12.60L55.88 12.60L55.88 0.89L53.29 0.89ZM65.71 10.50C65.43 10.50 65.12 10.45 65.12 9.89L65.12 5.60L62.53 5.60L62.53 6.11C62.06 5.71 61.44 5.46 60.71 5.46C58.80 5.46 57.31 7.05 57.31 9.10C57.31 11.15 58.80 12.74 60.71 12.74C61.72 12.74 62.51 12.29 63.02 11.53C63.53 12.27 64.37 12.74 65.36 12.74C65.59 12.74 65.80 12.67 65.96 12.60L65.96 10.50ZM61.30 10.48C60.52 10.48 59.90 9.89 59.90 9.10C59.90 8.31 60.52 7.72 61.30 7.72C62.06 7.72 62.69 8.31 62.69 9.10C62.69 9.22 62.67 9.35 62.63 9.45L62.56 9.66C62.35 10.15 61.86 10.48 61.30 10.48ZM69.63 12.74C71.33 12.74 72.29 11.73 72.29 10.40C72.29 8.94 71.07 8.37 70.05 7.96C69.67 7.81 69.48 7.74 69.48 7.58C69.48 7.46 69.58 7.32 69.91 7.32C70.37 7.32 70.79 7.58 71.03 7.81L72.17 6.32C71.56 5.81 70.72 5.46 69.72 5.46C67.94 5.46 66.94 6.62 66.94 7.79C66.94 9.28 68.57 9.71 69.20 9.96C69.77 10.17 69.91 10.33 69.91 10.48C69.91 10.66 69.74 10.76 69.44 10.76C69.18 10.76 68.72 10.69 68.34 10.08L66.52 11.03C66.97 12.18 68.36 12.74 69.63 12.74Z"></path></g></svg>
